# xmcd
#
# Track frame offsets:
#  150
#  11538
#  20109
#  32219
#  44643
#  54904
#  68787
#  79957
#  91235
#  101520
#  120141
#  131475
#  142593
#  160088
#  169302
#
# Disc length: 2511 seconds
#
# Revision: 0
# Processed by: cddbd v1.5.2PL0 Copyright (c) Steve Scherf et al.
# Submitted via: Collectorz.com_Music_Collector 6.9
#
DISCID=ba09cd0f
DTITLE=Various Artist - Country Cool Vol3 - Country Dreamin' - CD2
DYEAR=1900
DGENRE=Country
TTITLE0=Sandy Poser - Single Girl
TTITLE1=Roger Miller - England Swings
TTITLE2=Jack Scott - Burning Bridges
TTITLE3=Bobby Bare - 500 Miles Away From Home
TTITLE4=Skeeter Davis - My Last Date With You
TTITLE5=Lynn Anderson - Two Doors Down
TTITLE6=Conway Twitty - Hello Darlin
TTITLE7=Jim Lowe - Four Walls
TTITLE8=Don Gibson - Lonesome Number One
TTITLE9=Bobby Bare - Tequila Sheila
TTITLE10=Dolly Parton - Makin Belive
TTITLE11=SGT Barry Sadler - The Ballad Of The Green Berets
TTITLE12=Deborah Allen - Baby I Lied
TTITLE13=Roger Miller - Chug A Lug
TTITLE14=Jerry Lee lewis - There Must Be More To Love Than This
EXTD=
EXTT0=
EXTT1=
EXTT2=
EXTT3=
EXTT4=
EXTT5=
EXTT6=
EXTT7=
EXTT8=
EXTT9=
EXTT10=
EXTT11=
EXTT12=
EXTT13=
EXTT14=
PLAYORDER=
